<?xml version="1.0" standalone="no"?>
<!DOCTYPE svg PUBLIC "-//W3C//DTD SVG 20010904//EN"
 "http://www.w3.org/TR/2001/REC-SVG-20010904/DTD/svg10.dtd">
<svg version="1.0" xmlns="http://www.w3.org/2000/svg"
 width="626.000000pt" height="626.000000pt" viewBox="0 0 626.000000 626.000000"
 preserveAspectRatio="xMidYMid meet">

<g transform="translate(0.000000,626.000000) scale(0.100000,-0.100000)"
fill="#000000" stroke="none">
<path d="M3572 4230 c0 -14 2 -19 5 -12 2 6 2 18 0 25 -3 6 -5 1 -5 -13z"/>
<path d="M3471 4090 c-2 -69 -5 -117 -8 -107 -5 20 -19 22 -26 5 -3 -7 -6 -4
-7 7 -1 20 -1 20 -12 0 -11 -19 -11 -19 -19 0 -7 19 -8 19 -8 -2 -1 -27 -21
-41 -22 -16 0 16 -1 16 -8 -2 -4 -10 -6 -51 -3 -91 3 -56 1 -77 -13 -97 -21
-33 -14 -86 16 -113 33 -30 96 -25 125 9 28 32 32 82 9 114 -11 16 -15 64 -18
219 -2 164 -3 177 -6 74z"/>
<path d="M3532 4048 l-2 -127 33 -6 c17 -3 88 -14 157 -26 192 -31 310 -59
365 -85 102 -48 155 -131 230 -358 81 -246 120 -500 113 -725 -4 -113 -8 -143
-26 -177 -70 -135 -233 -164 -337 -59 -27 28 -52 71 -79 135 -54 131 -96 199
-165 267 -70 70 -162 126 -256 156 -67 21 -86 22 -430 22 -395 0 -408 -1 -533
-61 -85 -41 -188 -133 -242 -216 -21 -32 -59 -106 -85 -165 -51 -119 -80 -156
-140 -184 -103 -48 -220 -3 -278 106 -19 35 -22 63 -27 220 -4 99 -8 153 -10
120 -3 -57 -4 -58 -7 -15 -5 52 -23 80 -23 35 0 -23 -3 -27 -10 -15 -7 11 -10
4 -10 -27 0 -24 -4 -43 -10 -43 -5 0 -11 -8 -12 -17 -1 -10 -5 9 -9 42 -4 38
-6 0 -4 -105 2 -141 6 -173 24 -222 72 -187 312 -257 474 -138 54 39 87 89
135 203 23 55 58 123 78 153 73 110 194 192 323 220 93 19 629 19 722 0 162
-35 294 -144 372 -308 24 -51 48 -104 52 -118 13 -45 66 -115 116 -152 89 -66
218 -75 324 -23 64 31 109 79 144 155 26 54 26 59 26 270 -1 181 -4 234 -23
335 -67 351 -162 608 -263 706 -83 81 -176 112 -474 159 -181 29 -185 31 -185
75 0 24 -5 35 -15 35 -8 0 -16 -6 -17 -12 -1 -7 -4 12 -8 42 -5 42 -7 25 -8
-72z"/>
<path d="M3361 4064 c0 -11 3 -14 6 -6 3 7 2 16 -1 19 -3 4 -6 -2 -5 -13z"/>
<path d="M3328 4023 c6 -2 18 -2 25 0 6 3 1 5 -13 5 -14 0 -19 -2 -12 -5z"/>
<path d="M3188 3943 c28 -2 76 -2 105 0 28 2 5 3 -53 3 -58 0 -81 -1 -52 -3z"/>
<path d="M2852 3740 c0 -14 2 -19 5 -12 2 6 2 18 0 25 -3 6 -5 1 -5 -13z"/>
<path d="M3815 3608 c-21 -25 -25 -38 -21 -62 9 -45 39 -70 82 -70 73 0 111
88 59 139 -36 37 -86 34 -120 -7z"/>
<path d="M2555 3471 c58 -6 60 -7 62 -36 l2 -30 -13 29 -13 30 -14 -38 c-10
-29 -23 -41 -57 -57 -52 -22 -55 -23 -46 -6 4 6 4 9 -1 5 -4 -4 -14 -3 -22 3
-7 6 -13 7 -13 2 0 -5 13 -19 30 -31 33 -25 127 -31 148 -10 7 7 12 37 12 68
0 31 -5 61 -12 68 -7 7 -35 11 -67 10 l-56 -1 60 -6z"/>
<path d="M3639 3431 c-38 -39 -38 -74 1 -113 26 -25 36 -29 63 -24 39 7 77 48
77 82 0 34 -51 84 -85 84 -16 0 -38 -12 -56 -29z"/>
<path d="M4006 3438 c-33 -28 -39 -88 -11 -118 51 -56 144 -20 145 56 0 42
-27 73 -71 80 -28 5 -41 1 -63 -18z"/>
<path d="M2420 3398 c0 -19 2 -20 10 -8 13 19 13 30 0 30 -5 0 -10 -10 -10
-22z"/>
<path d="M2339 3333 l-24 -28 30 25 c17 14 32 26 34 28 2 1 0 2 -6 2 -5 0 -20
-12 -34 -27z"/>
<path d="M2403 3330 c21 -36 2 -60 -47 -60 -26 0 -38 -5 -42 -17 -3 -10 -10
-26 -15 -35 -5 -11 -5 -27 1 -43 9 -23 14 -25 80 -25 l70 0 0 65 c0 36 -5 71
-10 78 -6 7 -19 23 -31 37 l-21 25 15 -25z"/>
<path d="M2223 3323 c9 -2 23 -2 30 0 6 3 -1 5 -18 5 -16 0 -22 -2 -12 -5z"/>
<path d="M3824 3256 c-21 -18 -28 -32 -28 -61 0 -86 118 -116 153 -38 18 39
13 63 -18 94 -36 35 -70 37 -107 5z"/>
<path d="M1832 2980 c0 -14 2 -19 5 -12 2 6 2 18 0 25 -3 6 -5 1 -5 -13z"/>
<path d="M1742 2950 c0 -19 2 -27 5 -17 2 9 2 25 0 35 -3 9 -5 1 -5 -18z"/>
<path d="M1329 2122 c-157 -82 -158 -323 -1 -398 48 -23 171 -23 225 -1 l37
16 0 110 0 111 -90 0 -90 0 0 -40 0 -40 45 0 45 0 0 -45 c0 -43 -1 -44 -35
-51 -46 -8 -102 13 -128 48 -28 38 -34 116 -11 163 27 57 66 77 144 72 36 -2
73 -7 83 -12 15 -6 17 -1 17 38 0 42 -2 45 -31 51 -76 15 -155 7 -210 -22z"/>
<path d="M3273 2131 c-25 -12 -48 -32 -57 -50 -38 -72 -7 -137 85 -181 97 -46
117 -71 81 -103 -25 -23 -98 -22 -145 2 l-37 19 0 -44 c0 -39 3 -46 28 -55 15
-6 59 -12 97 -12 103 0 157 33 170 105 12 63 -14 100 -105 147 -89 47 -107 73
-70 103 27 22 78 23 125 4 l35 -15 0 43 c0 37 -4 45 -22 50 -48 12 -143 5
-185 -13z"/>
<path d="M4010 2135 c-82 -37 -123 -106 -123 -210 -1 -116 54 -192 156 -215
95 -21 182 14 232 94 26 44 30 58 29 125 0 93 -25 148 -86 188 -51 34 -152 43
-208 18z m153 -89 c57 -53 61 -174 7 -228 -27 -26 -48 -33 -95 -28 -60 6 -103
85 -90 166 14 98 115 149 178 90z"/>
<path d="M1790 2137 c0 -2 -34 -95 -75 -207 -41 -112 -75 -207 -75 -212 0 -4
22 -8 50 -8 l49 0 14 48 14 47 80 3 79 3 15 -48 15 -48 52 -3 c29 -2 52 -1 52
1 0 5 -127 363 -141 400 -11 25 -15 27 -70 27 -33 0 -59 -2 -59 -3z m87 -160
c12 -39 23 -78 23 -84 0 -9 -18 -13 -56 -13 -47 0 -55 3 -50 16 3 9 16 49 29
89 12 40 24 71 26 69 3 -2 15 -37 28 -77z"/>
<path d="M2120 1925 l0 -215 46 0 47 0 -5 176 c-3 96 -1 169 3 162 5 -7 9 -19
9 -26 0 -7 24 -81 53 -163 l52 -150 40 3 40 3 57 170 58 170 0 -172 0 -173 50
0 50 0 0 215 0 215 -73 0 -73 0 -43 -132 c-24 -73 -48 -144 -53 -158 -8 -21
-16 -3 -61 133 l-51 157 -73 0 -73 0 0 -215z"/>
<path d="M2720 1925 l0 -215 130 0 130 0 0 40 0 40 -85 0 -85 0 0 50 0 50 76
0 75 0 -3 38 -3 37 -73 3 -73 3 3 47 3 47 78 3 77 3 0 34 0 35 -125 0 -125 0
0 -215z"/>
<path d="M3530 2105 l0 -35 65 0 65 0 0 -180 0 -180 45 0 45 0 0 180 0 180 65
0 65 0 0 35 0 35 -175 0 -175 0 0 -35z"/>
<path d="M4380 1925 l0 -215 50 0 50 0 0 85 c0 70 3 85 16 85 31 0 53 -21 96
-95 l43 -75 53 0 c28 0 52 3 52 6 0 15 -112 175 -126 181 -12 4 -8 10 15 24
79 48 89 156 18 199 -27 17 -50 20 -149 20 l-118 0 0 -215z m203 123 c23 -27
22 -44 -8 -73 -16 -17 -35 -25 -60 -25 l-35 0 0 58 c0 32 3 62 7 66 13 13 77
-4 96 -26z"/>
<path d="M4790 1925 l0 -215 130 0 130 0 0 40 0 40 -80 0 -80 0 0 50 0 50 70
0 70 0 0 40 0 40 -70 0 -70 0 0 50 0 50 75 0 75 0 0 35 0 35 -125 0 -125 0 0
-215z"/>
</g>
</svg>
